<svg width="199" height="82" viewBox="0 0 199 82" fill="none" xmlns="http://www.w3.org/2000/svg">
<path d="M29.1984 28.8674C30.3765 28.8674 31.4367 29.1565 32.3792 29.7349C33.3217 30.3132 34.0606 31.1057 34.5961 32.1124C35.153 33.1191 35.4315 34.2651 35.4315 35.5502C35.4315 36.814 35.153 37.9599 34.5961 38.9881C34.0606 40.0162 33.3217 40.8301 32.3792 41.4299C31.4367 42.0296 30.3765 42.3295 29.1984 42.3295H22.6762L22.9011 41.9439V50.0405C22.9011 50.4046 22.7833 50.7152 22.5477 50.9722C22.3121 51.2293 22.0122 51.3578 21.6481 51.3578C21.2625 51.3578 20.9519 51.2293 20.7163 50.9722C20.5021 50.7152 20.395 50.4046 20.395 50.0405V30.1525C20.395 29.7884 20.5128 29.4885 20.7484 29.2529C21.0055 28.9959 21.3161 28.8674 21.6802 28.8674H29.1984ZM29.1984 39.8555C29.9053 39.8555 30.5264 39.6628 31.0619 39.2772C31.5974 38.8917 32.0258 38.3669 32.3471 37.7029C32.6684 37.0389 32.829 36.3213 32.829 35.5502C32.829 34.7363 32.6684 34.0187 32.3471 33.3976C32.0258 32.7764 31.5974 32.2838 31.0619 31.9196C30.5264 31.5341 29.9053 31.3413 29.1984 31.3413H22.6762L22.9011 30.9879V40.1768L22.6762 39.8555H29.1984ZM52.7089 34.5864C53.0731 34.5864 53.3729 34.7149 53.6085 34.9719C53.8656 35.2075 53.9941 35.5074 53.9941 35.8715V50.0405C53.9941 50.4046 53.8656 50.7152 53.6085 50.9722C53.3729 51.2293 53.0731 51.3578 52.7089 51.3578C52.3234 51.3578 52.0128 51.2293 51.7772 50.9722C51.5416 50.7152 51.4238 50.4046 51.4238 50.0405V46.9882L52.0342 46.924C52.0342 47.3952 51.8736 47.9093 51.5523 48.4662C51.231 49.0231 50.7919 49.5478 50.235 50.0405C49.6781 50.5117 49.0141 50.908 48.243 51.2293C47.4933 51.5291 46.6794 51.6791 45.8012 51.6791C44.3446 51.6791 43.0381 51.3042 41.8814 50.5546C40.7248 49.7835 39.8037 48.7446 39.1183 47.438C38.4543 46.1314 38.1223 44.6428 38.1223 42.9721C38.1223 41.2799 38.4543 39.7913 39.1183 38.5061C39.8037 37.1995 40.7248 36.1821 41.8814 35.4539C43.0381 34.7042 44.3232 34.3293 45.7369 34.3293C46.6579 34.3293 47.5147 34.4793 48.3072 34.7791C49.0998 35.079 49.7852 35.486 50.3635 36C50.9632 36.5141 51.4238 37.0817 51.7451 37.7029C52.0878 38.3241 52.2591 38.9452 52.2591 39.5664L51.4238 39.3736V35.8715C51.4238 35.5074 51.5416 35.2075 51.7772 34.9719C52.0128 34.7149 52.3234 34.5864 52.7089 34.5864ZM46.0903 49.3015C47.1613 49.3015 48.1037 49.0231 48.9177 48.4662C49.753 47.9093 50.3956 47.1596 50.8454 46.2171C51.3167 45.2532 51.5523 44.1716 51.5523 42.9721C51.5523 41.794 51.3167 40.7337 50.8454 39.7913C50.3956 38.8274 49.753 38.0777 48.9177 37.5422C48.1037 36.9853 47.1613 36.7069 46.0903 36.7069C45.0408 36.7069 44.0983 36.9746 43.263 37.5101C42.449 38.0456 41.8064 38.7846 41.3352 39.727C40.864 40.6695 40.6284 41.7512 40.6284 42.9721C40.6284 44.1716 40.8533 45.2532 41.3031 46.2171C41.7743 47.1596 42.4169 47.9093 43.2308 48.4662C44.0662 49.0231 45.0194 49.3015 46.0903 49.3015ZM57.8257 48.7232C57.633 48.4447 57.5473 48.1556 57.5687 47.8557C57.5901 47.5344 57.7722 47.256 58.1149 47.0204C58.3291 46.8704 58.5754 46.8062 58.8539 46.8276C59.1538 46.849 59.4215 46.9882 59.6571 47.2453C60.2569 47.9521 60.9423 48.5197 61.7134 48.9481C62.4845 49.3551 63.4269 49.5586 64.5407 49.5586C65.0548 49.5371 65.5689 49.4515 66.0829 49.3015C66.597 49.1516 67.0254 48.8946 67.3681 48.5304C67.7322 48.1449 67.9143 47.6415 67.9143 47.0204C67.9143 46.4206 67.7322 45.9494 67.3681 45.6067C67.004 45.2425 66.5328 44.9534 65.9544 44.7392C65.3761 44.5036 64.7442 44.3001 64.0588 44.1287C63.352 43.936 62.6558 43.7218 61.9704 43.4861C61.285 43.2291 60.6638 42.9185 60.1069 42.5544C59.5714 42.1688 59.1323 41.6976 58.7896 41.1407C58.4683 40.5624 58.3077 39.8663 58.3077 39.0523C58.3077 38.0884 58.5647 37.2531 59.0788 36.5462C59.6143 35.8394 60.3211 35.2932 61.1993 34.9077C62.0989 34.5221 63.0735 34.3293 64.1231 34.3293C64.7228 34.3293 65.344 34.4043 65.9866 34.5542C66.6506 34.6828 67.2931 34.9184 67.9143 35.2611C68.5355 35.5824 69.0817 36.0322 69.5529 36.6105C69.7457 36.8247 69.8528 37.0924 69.8742 37.4137C69.8956 37.735 69.7564 38.0242 69.4565 38.2812C69.2209 38.4526 68.9531 38.5275 68.6533 38.5061C68.3748 38.4847 68.1392 38.3776 67.9464 38.1848C67.4966 37.6493 66.929 37.2424 66.2436 36.9639C65.5796 36.6641 64.8406 36.5141 64.0267 36.5141C63.5126 36.5141 63.0093 36.5891 62.5166 36.739C62.024 36.889 61.6063 37.146 61.2636 37.5101C60.9423 37.8528 60.7816 38.3348 60.7816 38.9559C60.8031 39.5343 60.9958 40.0055 61.36 40.3696C61.7241 40.7337 62.2167 41.0336 62.8379 41.2692C63.4591 41.4834 64.1445 41.6976 64.8942 41.9118C65.5796 42.0832 66.2329 42.2867 66.854 42.5223C67.4966 42.7365 68.075 43.0256 68.589 43.3898C69.1031 43.7539 69.5101 44.2251 69.8099 44.8034C70.1098 45.3603 70.2597 46.0672 70.2597 46.924C70.2597 47.9093 69.9813 48.766 69.4244 49.4943C68.8675 50.2011 68.1285 50.7473 67.2075 51.1329C66.3078 51.497 65.3333 51.6791 64.2837 51.6791C63.1056 51.6791 61.9383 51.4542 60.7816 51.0044C59.6464 50.5546 58.6611 49.7942 57.8257 48.7232ZM73.0432 48.7232C72.8504 48.4447 72.7647 48.1556 72.7861 47.8557C72.8076 47.5344 72.9896 47.256 73.3323 47.0204C73.5465 46.8704 73.7929 46.8062 74.0713 46.8276C74.3712 46.849 74.6389 46.9882 74.8745 47.2453C75.4743 47.9521 76.1597 48.5197 76.9308 48.9481C77.7019 49.3551 78.6444 49.5586 79.7582 49.5586C80.2722 49.5371 80.7863 49.4515 81.3004 49.3015C81.8144 49.1516 82.2428 48.8946 82.5855 48.5304C82.9497 48.1449 83.1317 47.6415 83.1317 47.0204C83.1317 46.4206 82.9497 45.9494 82.5855 45.6067C82.2214 45.2425 81.7502 44.9534 81.1719 44.7392C80.5935 44.5036 79.9617 44.3001 79.2762 44.1287C78.5694 43.936 77.8733 43.7218 77.1878 43.4861C76.5024 43.2291 75.8813 42.9185 75.3243 42.5544C74.7889 42.1688 74.3498 41.6976 74.007 41.1407C73.6858 40.5624 73.5251 39.8663 73.5251 39.0523C73.5251 38.0884 73.7821 37.2531 74.2962 36.5462C74.8317 35.8394 75.5385 35.2932 76.4167 34.9077C77.3164 34.5221 78.2909 34.3293 79.3405 34.3293C79.9402 34.3293 80.5614 34.4043 81.204 34.5542C81.868 34.6828 82.5106 34.9184 83.1317 35.2611C83.7529 35.5824 84.2991 36.0322 84.7703 36.6105C84.9631 36.8247 85.0702 37.0924 85.0916 37.4137C85.113 37.735 84.9738 38.0242 84.6739 38.2812C84.4383 38.4526 84.1706 38.5275 83.8707 38.5061C83.5923 38.4847 83.3566 38.3776 83.1639 38.1848C82.7141 37.6493 82.1464 37.2424 81.461 36.9639C80.797 36.6641 80.058 36.5141 79.2441 36.5141C78.73 36.5141 78.2267 36.5891 77.734 36.739C77.2414 36.889 76.8237 37.146 76.481 37.5101C76.1597 37.8528 75.9991 38.3348 75.9991 38.9559C76.0205 39.5343 76.2133 40.0055 76.5774 40.3696C76.9415 40.7337 77.4342 41.0336 78.0553 41.2692C78.6765 41.4834 79.3619 41.6976 80.1116 41.9118C80.797 42.0832 81.4503 42.2867 82.0715 42.5223C82.7141 42.7365 83.2924 43.0256 83.8064 43.3898C84.3205 43.7539 84.7275 44.2251 85.0274 44.8034C85.3272 45.3603 85.4772 46.0672 85.4772 46.924C85.4772 47.9093 85.1987 48.766 84.6418 49.4943C84.0849 50.2011 83.3459 50.7473 82.4249 51.1329C81.5253 51.497 80.5507 51.6791 79.5011 51.6791C78.3231 51.6791 77.1557 51.4542 75.9991 51.0044C74.8638 50.5546 73.8785 49.7942 73.0432 48.7232ZM91.6663 50.0405C91.6663 50.4046 91.5378 50.7152 91.2807 50.9722C91.0451 51.2293 90.7453 51.3578 90.3811 51.3578C89.9956 51.3578 89.685 51.2293 89.4494 50.9722C89.2138 50.7152 89.096 50.4046 89.096 50.0405V35.7751C89.096 35.411 89.2138 35.1111 89.4494 34.8755C89.7064 34.6185 90.017 34.49 90.3811 34.49C90.7453 34.49 91.0451 34.6185 91.2807 34.8755C91.5378 35.1111 91.6663 35.411 91.6663 35.7751V50.0405ZM90.3811 32.3373C89.8456 32.3373 89.4494 32.2302 89.1923 32.016C88.9353 31.8018 88.8068 31.4698 88.8068 31.02V30.5702C88.8068 30.1204 88.946 29.7884 89.2245 29.5742C89.5029 29.36 89.8992 29.2529 90.4133 29.2529C90.9273 29.2529 91.3129 29.36 91.5699 29.5742C91.8269 29.7884 91.9555 30.1204 91.9555 30.5702V31.02C91.9555 31.4698 91.8162 31.8018 91.5378 32.016C91.2807 32.2302 90.8952 32.3373 90.3811 32.3373ZM112.059 43.0042C112.059 44.6749 111.684 46.1636 110.934 47.4702C110.206 48.7767 109.21 49.8049 107.946 50.5546C106.704 51.3042 105.301 51.6791 103.737 51.6791C102.174 51.6791 100.76 51.3042 99.4963 50.5546C98.2325 49.8049 97.2258 48.7767 96.4761 47.4702C95.7479 46.1636 95.3837 44.6749 95.3837 43.0042C95.3837 41.3335 95.7479 39.8448 96.4761 38.5383C97.2258 37.2317 98.2325 36.2035 99.4963 35.4539C100.76 34.7042 102.174 34.3293 103.737 34.3293C105.301 34.3293 106.704 34.7042 107.946 35.4539C109.21 36.2035 110.206 37.2317 110.934 38.5383C111.684 39.8448 112.059 41.3335 112.059 43.0042ZM109.488 43.0042C109.488 41.7619 109.231 40.6695 108.717 39.727C108.225 38.7846 107.539 38.0456 106.661 37.5101C105.804 36.9746 104.83 36.7069 103.737 36.7069C102.645 36.7069 101.66 36.9746 100.781 37.5101C99.9247 38.0456 99.2392 38.7846 98.7252 39.727C98.2111 40.6695 97.9541 41.7619 97.9541 43.0042C97.9541 44.2251 98.2111 45.3068 98.7252 46.2493C99.2392 47.1917 99.9247 47.9414 100.781 48.4983C101.66 49.0338 102.645 49.3015 103.737 49.3015C104.83 49.3015 105.804 49.0338 106.661 48.4983C107.539 47.9414 108.225 47.1917 108.717 46.2493C109.231 45.3068 109.488 44.2251 109.488 43.0042ZM124.182 34.3293C125.639 34.3293 126.784 34.6292 127.62 35.2289C128.455 35.8287 129.044 36.6319 129.387 37.6386C129.751 38.6453 129.933 39.7699 129.933 41.0122V50.0405C129.933 50.4046 129.805 50.7152 129.548 50.9722C129.312 51.2293 129.012 51.3578 128.648 51.3578C128.284 51.3578 127.973 51.2293 127.716 50.9722C127.481 50.7152 127.363 50.4046 127.363 50.0405V41.0765C127.363 40.2625 127.234 39.5343 126.977 38.8917C126.742 38.2277 126.335 37.7029 125.756 37.3173C125.199 36.9104 124.428 36.7069 123.443 36.7069C122.543 36.7069 121.719 36.9104 120.969 37.3173C120.219 37.7029 119.62 38.2277 119.17 38.8917C118.72 39.5343 118.495 40.2625 118.495 41.0765V50.0405C118.495 50.4046 118.367 50.7152 118.11 50.9722C117.874 51.2293 117.574 51.3578 117.21 51.3578C116.846 51.3578 116.535 51.2293 116.278 50.9722C116.043 50.7152 115.925 50.4046 115.925 50.0405V36.0322C115.925 35.668 116.043 35.3682 116.278 35.1326C116.535 34.8755 116.846 34.747 117.21 34.747C117.596 34.747 117.906 34.8755 118.142 35.1326C118.377 35.3682 118.495 35.668 118.495 36.0322V38.3133L117.853 39.0202C117.96 38.4633 118.206 37.9064 118.592 37.3495C118.977 36.7711 119.459 36.2571 120.037 35.8073C120.616 35.3575 121.258 35.004 121.965 34.747C122.672 34.4686 123.411 34.3293 124.182 34.3293Z" fill="url(#paint0_linear_1023_28)"/>
<path d="M177.733 25.1635C177.045 19.2653 172.725 14.5638 166.595 13.0251C158.063 10.9003 149.314 15.8338 147.627 23.7225C147.289 25.249 147.33 27.6059 147.708 29.1934C148.531 32.6615 150.786 35.8732 153.77 37.8514C154.242 38.1689 157.806 40.135 161.668 42.2354C168.634 46.0088 168.715 46.0577 169.984 47.2056C172.374 49.367 173.494 51.7727 173.494 54.7402C173.494 57.6343 172.009 60.4919 169.552 62.3358C168.458 63.154 166.312 64.0943 164.921 64.3752C163.531 64.656 161.587 64.656 160.196 64.3752C158.805 64.0943 156.659 63.154 155.565 62.3358C151.218 59.0875 150.341 53.2015 153.581 49.0984C153.905 48.6832 154.769 47.8406 155.484 47.2422C156.618 46.2897 156.794 46.0821 156.888 45.6181C157.077 44.6533 156.659 43.8962 155.714 43.5177C154.553 43.0536 153.662 43.4077 151.812 45.0685C146.466 49.8677 145.872 57.5 150.435 62.9708C154.539 67.9043 161.735 69.7361 168.161 67.4647C172.927 65.7917 176.491 61.884 177.49 57.2558C177.801 55.8758 177.787 53.3847 177.477 52.0292C176.707 48.5977 174.709 45.557 171.874 43.5177C171.28 43.078 167.608 41.002 163.612 38.8284C157.442 35.4824 156.294 34.8107 155.376 34.0292C152.784 31.8311 151.502 29.0224 151.664 25.8474C151.745 24.15 151.974 23.3196 152.757 21.8664C154.134 19.3264 156.753 17.3969 159.832 16.652C161.344 16.2979 163.72 16.2979 165.245 16.6642C168.377 17.4091 170.97 19.3141 172.36 21.8664C173.157 23.344 173.373 24.15 173.454 25.8962C173.602 29.0468 172.468 31.3793 169.66 33.7117C168.661 34.5421 168.364 34.8596 168.256 35.2504C167.986 36.2029 168.445 37.0699 169.404 37.4607C170.565 37.9247 171.456 37.5706 173.305 35.9098C176.046 33.4552 177.531 30.3901 177.72 26.8121C177.76 26.1771 177.76 25.4322 177.733 25.1635Z" fill="url(#paint1_linear_1023_28)"/>
<defs>
<linearGradient id="paint0_linear_1023_28" x1="75.0677" y1="19.3578" x2="75.0677" y2="59.3578" gradientUnits="userSpaceOnUse">
<stop stop-color="#E740AF"/>
<stop offset="1" stop-color="#9A41EA"/>
</linearGradient>
<linearGradient id="paint1_linear_1023_28" x1="163.171" y1="12.9459" x2="161.93" y2="73.6979" gradientUnits="userSpaceOnUse">
<stop stop-color="#E740AF"/>
<stop offset="1" stop-color="#9A41EA"/>
</linearGradient>
</defs>
</svg>
