<svg width="68" height="68" viewBox="0 0 68 68" fill="none" xmlns="http://www.w3.org/2000/svg">
<g clip-path="url(#clip0_1054_22)">
<path d="M64.8472 8.45755C62.1473 10.362 59.1579 11.8186 55.9941 12.7713C54.2961 10.8189 52.0394 9.43503 49.5293 8.80695C47.0191 8.17888 44.3766 8.33687 41.9592 9.25955C39.5418 10.1822 37.466 11.8251 36.0127 13.9659C34.5594 16.1068 33.7986 18.6423 33.8333 21.2296V24.0491C28.8785 24.1775 23.9689 23.0787 19.5416 20.8503C15.1143 18.6219 11.3069 15.3331 8.45834 11.277C8.45834 11.277 -2.81943 36.652 22.5556 47.9297C16.749 51.8712 9.83185 53.8476 2.81946 53.5686C28.1944 67.6658 59.2083 53.5686 59.2083 21.145C59.2057 20.3597 59.1302 19.5763 58.9828 18.8049C61.8603 15.9671 63.8909 12.3842 64.8472 8.45755V8.45755Z" stroke="url(#paint0_linear_1054_22)" stroke-width="5" stroke-linecap="round" stroke-linejoin="round"/>
</g>
<defs>
<linearGradient id="paint0_linear_1054_22" x1="3.28053" y1="34.7399" x2="70.7081" y2="33.8222" gradientUnits="userSpaceOnUse">
<stop stop-color="#E740AF"/>
<stop offset="1" stop-color="#9A41EA"/>
</linearGradient>
<clipPath id="clip0_1054_22">
<rect width="67.6666" height="67.6666" fill="white"/>
</clipPath>
</defs>
</svg>
