<svg width="1410" height="1410" viewBox="0 0 1410 1410" fill="none" xmlns="http://www.w3.org/2000/svg">
<path d="M1057.88 323.559C1041.85 176.696 941.274 59.6309 798.575 21.3188C599.928 -31.5884 396.252 91.2536 356.962 287.679C349.104 325.687 350.047 384.371 358.848 423.9C378.021 510.254 430.512 590.223 499.976 639.481C510.977 647.387 593.956 696.341 683.85 748.64C846.036 842.596 847.922 843.812 877.468 872.394C933.102 926.214 959.19 986.115 959.19 1060C959.19 1132.07 924.615 1203.22 867.41 1249.13C841.95 1269.5 791.974 1292.92 759.6 1299.91C727.225 1306.9 681.964 1306.9 649.589 1299.91C617.215 1292.92 567.239 1269.5 541.779 1249.13C440.57 1168.25 420.14 1021.69 495.575 919.524C503.119 909.186 523.235 888.206 539.894 873.307C566.296 849.59 570.382 844.421 572.582 832.866C576.983 808.845 567.239 789.993 545.237 780.567C518.206 769.013 497.461 777.831 454.4 819.183C329.931 938.68 316.101 1128.72 422.34 1264.94C517.891 1387.78 685.421 1433.39 835.035 1376.84C945.988 1335.18 1028.97 1237.88 1052.23 1122.64C1059.46 1088.28 1059.14 1026.25 1051.91 992.5C1034 907.058 987.478 831.346 921.472 780.567C907.642 769.621 822.148 717.93 729.111 663.806C585.469 580.493 558.752 563.769 537.379 544.309C477.031 489.578 447.171 419.643 450.942 340.586C452.828 298.321 458.172 277.645 476.402 241.461C508.462 178.216 569.439 130.174 641.103 111.626C676.306 102.808 731.626 102.808 767.143 111.93C840.064 130.478 900.413 177.912 932.787 241.461C951.332 278.253 956.361 298.321 958.247 341.802C961.704 420.251 935.302 478.327 869.924 536.404C846.665 557.08 839.75 564.986 837.235 574.716C830.949 598.433 841.636 620.021 863.952 629.751C890.983 641.306 911.728 632.488 954.789 591.135C1018.6 530.018 1053.17 453.698 1057.57 364.607C1058.51 348.796 1058.51 330.248 1057.88 323.559Z" fill="url(#paint0_linear_1039_17)"/>
<defs>
<linearGradient id="paint0_linear_1039_17" x1="718.853" y1="19.3463" x2="685.813" y2="1531.95" gradientUnits="userSpaceOnUse">
<stop stop-color="#E740AF"/>
<stop offset="1" stop-color="#9A41EA"/>
</linearGradient>
</defs>
</svg>
